<?xml version="1.0" encoding="UTF-8"?>
<svg id="svg2" xmlns="http://www.w3.org/2000/svg" xmlns:xlink="http://www.w3.org/1999/xlink" viewBox="0 0 604.72 551.81">
  <defs>
    <style>
      .cls-1 {
        fill: none;
      }

      .cls-2 {
        fill: #c2c2c5;
      }

      .cls-3 {
        fill: #a3a3a6;
      }

      .cls-4 {
        fill: #dadadd;
      }

      .cls-5 {
        clip-path: url(#clippath);
      }
    </style>
    <clipPath id="clippath">
      <rect class="cls-1" width="604.72" height="551.81"/>
    </clipPath>
  </defs>
  <g class="cls-5">
    <path id="path20" class="cls-4" d="M173.42,222.51c-39.03,0-71.75,18.57-99.21,52.54,0,.31,0,.62,0,.94,0,125.97,103.15,228.1,227.96,228.1s228.37-102.12,228.37-228.1v-.05c-21.87,29.44-58.32,45.1-100.11,45.1s-85.5-14.54-127.37-45.3c-49.55-36.39-92.45-53.23-129.62-53.23"/>
    <path id="path24" class="cls-4" d="M571.65,304.25c15.63,0,28.35-12.72,28.35-28.35s-12.72-28.35-28.35-28.35-28.35,12.72-28.35,28.35,12.72,28.35,28.35,28.35"/>
    <path id="path28" class="cls-3" d="M44.7,250.07c-12.37,2.11-21.8,12.86-21.8,25.83s9.45,23.84,21.83,25.83c9.49-3.73,16.69-14.37,16.69-25.83s-6.87-21.39-16.72-25.83h0Z"/>
    <path id="path32" class="cls-4" d="M44.7,301.74c-12.37-2.11-21.8-12.86-21.8-25.83s9.43-23.72,21.8-25.83c-3.55-1.6-7.48-2.51-11.63-2.51-15.66,0-28.35,12.69-28.35,28.35s12.69,28.25,28.35,28.35c6.53.04,11.57-2.48,11.63-2.51"/>
    <path id="path36" class="cls-3" d="M303.02,9.61c.21-.05.41-.11.61-.2.2-.08.4-.19.57-.31.19-.12.36-.25.52-.41.15-.15.29-.32.41-.51.12-.17.21-.37.31-.57.08-.2.15-.41.19-.63.04-.21.07-.43.07-.65,0-.87-.36-1.73-.97-2.35-.16-.16-.33-.29-.52-.41-.17-.12-.37-.23-.57-.31-.2-.09-.4-.15-.61-.2-1.09-.21-2.24.15-3.01.92-.63.61-.97,1.48-.97,2.35s.35,1.75.97,2.36c.63.63,1.48.99,2.36.99.21,0,.44-.03.65-.07M303.02,548.74c.21-.05.41-.11.61-.2.2-.08.4-.19.57-.31.19-.12.36-.25.52-.41.15-.15.29-.32.41-.51.12-.17.21-.37.31-.57.08-.2.15-.41.19-.63s.07-.43.07-.65c0-.87-.36-1.73-.97-2.35-.16-.16-.33-.29-.52-.41-.17-.12-.37-.23-.57-.31-.2-.09-.4-.15-.61-.2-1.09-.21-2.24.15-3.01.92-.63.61-.97,1.48-.97,2.35s.35,1.75.97,2.36c.63.63,1.48.99,2.36.99.21,0,.44-.03.65-.07M32.47,316.58h0c-.28-1.83.99-3.52,2.8-3.8,1.83-.27,3.52.99,3.79,2.81.28,1.81-.99,3.51-2.8,3.79-.16.03-.33.04-.49.04-1.63,0-3.05-1.2-3.29-2.84M36.24,336.64h0c-.41-1.8.71-3.59,2.51-4,1.8-.4,3.59.72,3.99,2.52.41,1.8-.72,3.57-2.51,3.99-.25.05-.49.08-.75.08-1.52,0-2.89-1.04-3.24-2.59M41.51,356.34h0c-.55-1.76.44-3.63,2.2-4.16,1.76-.55,3.63.44,4.17,2.2.53,1.76-.45,3.63-2.21,4.17-.32.09-.65.15-.97.15-1.43,0-2.75-.92-3.19-2.36M48.26,375.62c-.68-1.71.17-3.64,1.88-4.32,1.71-.67,3.64.17,4.32,1.88.68,1.72-.17,3.65-1.88,4.32-.4.16-.81.24-1.23.24-1.32,0-2.59-.8-3.09-2.12M56.43,394.34c-.8-1.67-.11-3.65,1.55-4.45,1.67-.8,3.65-.11,4.45,1.56h0c.8,1.65.11,3.64-1.55,4.44-.47.23-.97.33-1.45.33-1.24,0-2.43-.69-3-1.88M65.98,412.38c-.92-1.6-.37-3.64,1.23-4.56,1.59-.92,3.63-.37,4.55,1.23.92,1.59.39,3.63-1.21,4.55-.52.31-1.09.45-1.67.45-1.15,0-2.27-.6-2.89-1.67M76.86,429.66c-1.04-1.52-.64-3.6.88-4.64,1.52-1.04,3.59-.65,4.63.88,1.04,1.52.65,3.59-.87,4.63-.57.39-1.23.59-1.88.59-1.07,0-2.11-.52-2.76-1.45M88.99,446.08c-1.15-1.44-.91-3.55.53-4.69,1.43-1.15,3.53-.91,4.68.52h0c1.15,1.44.91,3.55-.52,4.69-.61.49-1.36.73-2.08.73-.99,0-1.95-.44-2.61-1.25M102.31,461.53h0c-1.25-1.35-1.17-3.45.17-4.71,1.36-1.25,3.47-1.17,4.72.17,1.25,1.35,1.17,3.47-.17,4.71-.65.6-1.47.89-2.27.89-.91,0-1.8-.36-2.45-1.07M116.75,475.97c-1.36-1.25-1.44-3.37-.19-4.72,1.25-1.35,3.36-1.43,4.72-.17,1.35,1.25,1.43,3.36.17,4.71-.65.71-1.55,1.07-2.45,1.07-.8,0-1.61-.29-2.25-.88M132.2,489.27h0c-1.44-1.15-1.68-3.24-.52-4.68,1.15-1.44,3.24-1.68,4.68-.52h0c1.44,1.15,1.68,3.24.52,4.68-.65.83-1.63,1.25-2.6,1.25-.73,0-1.47-.24-2.08-.73M148.62,501.41c-1.52-1.04-1.92-3.12-.88-4.64,1.04-1.52,3.12-1.91,4.64-.87,1.52,1.04,1.91,3.11.87,4.63-.64.95-1.69,1.45-2.76,1.45-.64,0-1.29-.19-1.87-.57M165.87,512.27c-1.59-.92-2.13-2.96-1.21-4.55.92-1.6,2.96-2.15,4.56-1.23,1.59.93,2.13,2.96,1.21,4.56-.61,1.07-1.73,1.67-2.89,1.67-.56,0-1.13-.15-1.67-.45M183.9,521.82c-1.65-.8-2.35-2.79-1.55-4.45.8-1.65,2.79-2.35,4.45-1.55,1.65.8,2.35,2.79,1.55,4.45-.57,1.19-1.76,1.88-3,1.88-.49,0-.99-.11-1.45-.33M202.59,529.99c-1.72-.68-2.56-2.61-1.88-4.32.67-1.72,2.6-2.56,4.32-1.89,1.71.68,2.55,2.61,1.88,4.32-.52,1.32-1.77,2.12-3.11,2.12-.4,0-.81-.08-1.21-.23M221.83,536.73c-1.76-.55-2.75-2.41-2.2-4.17.55-1.75,2.41-2.73,4.16-2.2,1.77.55,2.75,2.41,2.21,4.17-.44,1.43-1.76,2.35-3.19,2.35-.33,0-.65-.04-.99-.15M241.55,542.01h-.01c-1.79-.41-2.91-2.2-2.51-4,.41-1.79,2.2-2.91,4-2.51,1.79.41,2.92,2.2,2.51,3.99-.36,1.55-1.73,2.6-3.25,2.6-.24,0-.49-.03-.73-.08M261.59,545.78h.01c-1.83-.27-3.08-1.97-2.81-3.79.28-1.83,1.97-3.08,3.8-2.8,1.81.27,3.07,1.96,2.8,3.79-.25,1.65-1.68,2.84-3.29,2.84-.17,0-.33-.01-.51-.04M281.87,548.05c-1.83-.13-3.21-1.73-3.08-3.57.15-1.84,1.75-3.21,3.57-3.08,1.84.15,3.21,1.73,3.08,3.57-.13,1.76-1.59,3.09-3.32,3.09-.08,0-.16,0-.25-.01M278.88,7.33c-.13-1.84,1.25-3.44,3.08-3.57,1.84-.13,3.44,1.24,3.57,3.08.13,1.83-1.24,3.43-3.08,3.56-.08.01-.16.01-.25.01-1.72,0-3.19-1.33-3.32-3.08M258.88,9.8c-.27-1.81.99-3.51,2.8-3.79h.01c1.81-.27,3.51.99,3.79,2.81.27,1.81-.99,3.51-2.81,3.79-.16.03-.32.04-.49.04-1.61,0-3.04-1.19-3.29-2.85M239.12,13.77c-.41-1.79.72-3.57,2.51-3.99,1.8-.4,3.59.72,3.99,2.52.41,1.79-.71,3.57-2.51,3.99-.24.05-.49.08-.73.08-1.53,0-2.91-1.05-3.25-2.6M219.71,19.22c-.53-1.76.45-3.63,2.21-4.17,1.76-.53,3.61.45,4.16,2.21.55,1.75-.44,3.61-2.2,4.16-.33.11-.65.15-.99.15-1.43,0-2.75-.92-3.19-2.35M200.75,26.12c-.67-1.71.17-3.65,1.89-4.32,1.71-.67,3.64.17,4.32,1.88.67,1.72-.17,3.65-1.89,4.33h.01c-.4.15-.81.23-1.23.23-1.33,0-2.59-.8-3.11-2.12M182.38,34.42c-.8-1.65-.11-3.65,1.55-4.45,1.67-.8,3.65-.11,4.45,1.56.8,1.65.11,3.64-1.55,4.44h-.01c-.47.23-.96.33-1.44.33-1.24,0-2.43-.69-3-1.88M164.67,44.08c-.92-1.59-.39-3.63,1.21-4.55,1.59-.92,3.63-.37,4.56,1.21.92,1.6.37,3.63-1.23,4.56-.52.29-1.09.44-1.67.44-1.15,0-2.27-.59-2.88-1.67M147.74,55.04c-1.04-1.52-.65-3.59.87-4.63,1.52-1.04,3.6-.65,4.64.87,1.04,1.52.64,3.6-.88,4.64-.57.39-1.23.57-1.87.57-1.07,0-2.12-.51-2.76-1.45M131.67,67.22c-1.15-1.44-.91-3.53.52-4.68,1.44-1.15,3.55-.92,4.69.52,1.15,1.44.91,3.53-.53,4.69-.61.48-1.35.72-2.07.72-.99,0-1.96-.43-2.61-1.25M116.56,80.57c-1.25-1.35-1.19-3.45.17-4.71,1.35-1.25,3.45-1.17,4.71.17,1.25,1.35,1.17,3.45-.17,4.71-.64.6-1.45.89-2.27.89-.89,0-1.79-.36-2.44-1.07M102.48,94.99c-1.36-1.25-1.44-3.36-.19-4.71,1.25-1.35,3.36-1.43,4.72-.17,1.35,1.25,1.43,3.36.17,4.71-.65.71-1.55,1.07-2.44,1.07-.81,0-1.63-.29-2.27-.89M89.51,110.44c-1.44-1.15-1.67-3.25-.52-4.68,1.15-1.44,3.24-1.68,4.68-.53,1.44,1.15,1.68,3.25.52,4.68h0c-.65.83-1.63,1.27-2.6,1.27-.73,0-1.47-.24-2.08-.73M77.74,126.78c-1.53-1.03-1.92-3.11-.88-4.63,1.04-1.52,3.11-1.91,4.63-.87,1.53,1.03,1.92,3.11.88,4.63-.64.95-1.69,1.45-2.76,1.45-.64,0-1.29-.19-1.87-.59M67.2,143.97c-1.59-.92-2.13-2.96-1.21-4.55.92-1.6,2.96-2.15,4.55-1.23,1.6.93,2.15,2.97,1.23,4.56-.63,1.07-1.75,1.67-2.89,1.67-.57,0-1.15-.15-1.67-.45M57.99,161.89c-1.65-.8-2.35-2.79-1.55-4.44.8-1.67,2.79-2.36,4.45-1.56,1.65.8,2.35,2.8,1.55,4.45-.57,1.19-1.76,1.88-3,1.88-.49,0-.99-.11-1.45-.33M50.15,180.45c-1.71-.67-2.55-2.6-1.88-4.32.68-1.71,2.61-2.56,4.32-1.88,1.72.67,2.56,2.61,1.89,4.32-.52,1.31-1.77,2.12-3.11,2.12-.41,0-.81-.08-1.23-.24M43.74,199.54c-1.76-.55-2.75-2.41-2.2-4.17.53-1.76,2.4-2.75,4.17-2.2,1.75.55,2.73,2.41,2.2,4.17-.45,1.43-1.76,2.35-3.19,2.35-.33,0-.65-.05-.99-.15M38.76,219.08c-1.79-.4-2.91-2.19-2.51-3.99.41-1.8,2.2-2.92,4-2.51,1.79.4,2.91,2.19,2.51,3.99-.36,1.55-1.73,2.6-3.25,2.6-.24,0-.49-.04-.75-.09M35.28,238.93c-1.81-.27-3.08-1.97-2.8-3.79.27-1.83,1.97-3.08,3.79-2.8,1.83.27,3.08,1.96,2.8,3.79-.24,1.65-1.67,2.84-3.28,2.84-.17,0-.33-.01-.51-.04M322.36,10.41h-.01c-1.83-.13-3.21-1.73-3.08-3.57.15-1.84,1.75-3.21,3.57-3.08,1.84.13,3.21,1.73,3.08,3.57-.13,1.76-1.59,3.09-3.32,3.09-.08,0-.16-.01-.24-.01M342.14,12.62c-1.83-.28-3.08-1.97-2.8-3.8.27-1.81,1.96-3.07,3.79-2.8,1.83.28,3.08,1.97,2.8,3.8-.24,1.65-1.67,2.84-3.29,2.84-.16,0-.32-.01-.49-.04M361.7,16.3c-1.8-.41-2.92-2.19-2.51-3.99.4-1.8,2.19-2.92,3.99-2.51,1.8.4,2.92,2.19,2.51,3.99-.35,1.55-1.72,2.6-3.24,2.6-.25,0-.49-.04-.75-.09M380.92,21.45h0c-1.76-.55-2.75-2.41-2.2-4.17.53-1.76,2.41-2.75,4.17-2.2,1.75.55,2.73,2.41,2.2,4.17-.44,1.43-1.76,2.35-3.19,2.35-.32,0-.65-.04-.99-.15M399.7,28.02c-1.72-.68-2.56-2.61-1.88-4.32.67-1.72,2.6-2.56,4.32-1.88,1.71.67,2.55,2.6,1.88,4.32-.52,1.31-1.77,2.11-3.11,2.11-.4,0-.81-.07-1.21-.23M417.92,35.98c-1.65-.79-2.35-2.79-1.55-4.44.79-1.65,2.79-2.36,4.44-1.56,1.67.8,2.36,2.8,1.56,4.45-.57,1.19-1.77,1.88-3,1.88-.49,0-.99-.11-1.45-.33M435.51,45.3c-1.6-.92-2.15-2.96-1.21-4.56.92-1.59,2.96-2.13,4.55-1.21,1.6.92,2.15,2.96,1.21,4.56-.61,1.07-1.73,1.67-2.88,1.67-.57,0-1.15-.15-1.67-.45M452.35,55.91c-1.52-1.04-1.91-3.12-.87-4.64,1.04-1.52,3.11-1.91,4.63-.88,1.52,1.04,1.91,3.12.87,4.64-.64.95-1.69,1.45-2.75,1.45-.65,0-1.31-.19-1.88-.57M468.35,67.74c-1.43-1.15-1.67-3.25-.52-4.69,1.15-1.43,3.25-1.67,4.69-.52,1.43,1.15,1.67,3.25.52,4.69-.67.81-1.63,1.24-2.61,1.24-.72,0-1.47-.23-2.08-.72M483.44,80.73c-1.35-1.25-1.43-3.36-.17-4.71,1.25-1.35,3.36-1.43,4.71-.17,1.35,1.25,1.43,3.36.17,4.71-.65.71-1.55,1.07-2.44,1.07-.81,0-1.63-.29-2.27-.89M497.52,94.81c-1.25-1.35-1.17-3.45.17-4.71,1.35-1.25,3.45-1.17,4.71.17,1.25,1.35,1.17,3.45-.17,4.71-.64.6-1.45.89-2.27.89-.89,0-1.79-.36-2.44-1.07M510.52,109.9c-1.16-1.44-.92-3.53.52-4.69,1.44-1.15,3.53-.91,4.68.53,1.15,1.44.92,3.53-.52,4.68-.61.49-1.35.73-2.08.73-.97,0-1.95-.43-2.6-1.25M522.36,125.92c-1.05-1.52-.65-3.6.87-4.64,1.52-1.04,3.59-.64,4.63.88,1.04,1.52.65,3.59-.87,4.63-.57.4-1.23.59-1.88.59-1.07,0-2.11-.51-2.75-1.45M532.96,142.77c-.92-1.6-.37-3.64,1.21-4.56,1.6-.92,3.64-.37,4.56,1.21.92,1.6.37,3.64-1.21,4.56-.53.31-1.11.45-1.67.45-1.15,0-2.27-.6-2.89-1.67M542.28,160.37c-.8-1.67-.09-3.65,1.56-4.45,1.65-.8,3.65-.11,4.45,1.56.8,1.65.11,3.64-1.56,4.44-.47.23-.96.33-1.44.33-1.24,0-2.44-.69-3.01-1.88M550.26,178.62c-.67-1.72.17-3.65,1.89-4.32,1.71-.68,3.64.17,4.32,1.88.67,1.71-.17,3.65-1.88,4.32-.4.16-.81.24-1.23.24-1.32,0-2.59-.81-3.11-2.12M556.84,197.42c-.55-1.76.44-3.63,2.2-4.16,1.76-.55,3.63.44,4.17,2.2.53,1.76-.45,3.63-2.21,4.16-.32.11-.65.16-.97.16-1.43,0-2.75-.92-3.19-2.36M561.98,216.66h0c-.4-1.8.72-3.59,2.52-4,1.79-.4,3.57.72,3.99,2.52.4,1.79-.72,3.57-2.51,3.99-.25.05-.51.08-.75.08-1.52,0-2.89-1.04-3.25-2.59M565.66,236.22c-.27-1.83.99-3.52,2.8-3.8,1.83-.27,3.52.99,3.8,2.81.27,1.81-.99,3.52-2.81,3.79-.16.03-.33.04-.49.04-1.63,0-3.04-1.19-3.29-2.84M568.44,319.48c-1.81-.28-3.07-1.97-2.8-3.8.27-1.81,1.97-3.07,3.79-2.8,1.83.28,3.08,1.97,2.81,3.79-.25,1.67-1.68,2.85-3.31,2.85-.16,0-.32-.01-.49-.04M564.47,339.23c-1.8-.41-2.92-2.2-2.51-4,.4-1.79,2.19-2.92,3.99-2.51,1.8.41,2.92,2.2,2.51,3.99-.35,1.55-1.72,2.6-3.24,2.6-.25,0-.49-.03-.75-.08M559.02,358.64c-1.76-.55-2.75-2.41-2.2-4.17.53-1.75,2.4-2.73,4.16-2.2,1.76.55,2.75,2.41,2.21,4.17-.45,1.43-1.76,2.35-3.19,2.35-.33,0-.65-.04-.99-.15M552.12,377.55c-1.71-.67-2.56-2.6-1.88-4.32.67-1.71,2.6-2.56,4.32-1.88,1.71.67,2.56,2.61,1.88,4.32-.51,1.32-1.77,2.12-3.11,2.12-.4,0-.81-.08-1.21-.24M543.83,395.92c-1.67-.8-2.36-2.79-1.56-4.45.8-1.65,2.8-2.35,4.45-1.55,1.65.8,2.36,2.79,1.56,4.45-.59,1.19-1.77,1.88-3.01,1.88-.48,0-.97-.11-1.44-.33M534.18,413.61c-1.6-.92-2.13-2.96-1.21-4.56.92-1.59,2.96-2.13,4.56-1.21,1.59.92,2.13,2.96,1.21,4.56-.63,1.07-1.75,1.67-2.89,1.67-.57,0-1.15-.15-1.67-.45M523.23,430.53c-1.52-1.04-1.92-3.12-.87-4.64,1.03-1.52,3.11-1.91,4.63-.87,1.52,1.04,1.91,3.11.87,4.63-.64.95-1.69,1.45-2.75,1.45-.65,0-1.31-.19-1.88-.57M511.04,446.58c-1.44-1.15-1.67-3.24-.52-4.68,1.15-1.44,3.24-1.68,4.68-.52,1.44,1.15,1.68,3.24.53,4.68-.67.83-1.63,1.25-2.61,1.25-.72,0-1.45-.24-2.08-.73M497.71,461.7c-1.36-1.25-1.43-3.36-.17-4.72,1.24-1.35,3.36-1.43,4.71-.17,1.35,1.25,1.43,3.36.17,4.72-.65.71-1.55,1.05-2.44,1.05-.81,0-1.63-.29-2.27-.88M483.28,475.77c-1.27-1.35-1.19-3.45.17-4.71,1.35-1.25,3.45-1.17,4.71.17,1.25,1.35,1.17,3.47-.17,4.72-.64.59-1.45.88-2.27.88-.89,0-1.79-.35-2.44-1.07M467.84,488.74c-1.15-1.44-.92-3.53.52-4.68,1.44-1.15,3.53-.91,4.68.52,1.15,1.44.92,3.55-.52,4.69-.61.49-1.35.72-2.08.72-.97,0-1.95-.43-2.6-1.25M451.48,500.53c-1.04-1.52-.65-3.59.87-4.63,1.52-1.04,3.59-.65,4.63.87,1.04,1.52.65,3.6-.87,4.64-.57.39-1.23.57-1.88.57-1.05,0-2.11-.51-2.75-1.45M434.28,511.06c-.92-1.59-.37-3.63,1.21-4.55,1.6-.93,3.64-.37,4.56,1.21.92,1.59.37,3.63-1.21,4.55-.53.31-1.11.45-1.67.45-1.16,0-2.28-.6-2.89-1.67M416.34,520.29c-.8-1.67-.09-3.65,1.56-4.45,1.65-.8,3.65-.11,4.45,1.56.8,1.65.09,3.64-1.56,4.44-.47.23-.96.33-1.44.33-1.24,0-2.43-.69-3.01-1.88M397.76,528.13c-.68-1.72.16-3.65,1.88-4.32,1.71-.68,3.65.17,4.32,1.88.68,1.72-.17,3.65-1.88,4.32-.4.16-.81.24-1.23.24-1.32,0-2.59-.81-3.09-2.12M378.63,534.55c-.53-1.76.45-3.63,2.21-4.17,1.76-.53,3.63.45,4.16,2.21.55,1.76-.44,3.63-2.2,4.16-.33.11-.65.15-.99.15-1.43,0-2.75-.92-3.19-2.35M359.1,539.51c-.41-1.8.72-3.59,2.51-3.99,1.8-.41,3.59.72,3.99,2.51.41,1.8-.71,3.59-2.51,3.99-.24.07-.49.09-.73.09-1.53,0-2.91-1.05-3.25-2.6M339.24,542.99c-.27-1.83.99-3.52,2.8-3.79,1.83-.28,3.52.97,3.8,2.8.27,1.81-.99,3.52-2.81,3.79-.16.03-.33.04-.49.04-1.63,0-3.05-1.19-3.29-2.84M319.19,544.98c-.15-1.84,1.24-3.44,3.07-3.57,1.84-.13,3.44,1.24,3.57,3.08.13,1.84-1.24,3.43-3.08,3.57h-.25c-1.72,0-3.19-1.33-3.31-3.08"/>
    <path id="path40" class="cls-3" d="M314.65,275.91c0-4.33-2.25-8.13-5.63-10.32l.21-173.73-13.33-.02-.21,173.76c-3.37,2.19-5.61,5.98-5.61,10.3s2.22,8.09,5.58,10.29l-.17,134.44,13.33.02.17-134.41c3.4-2.19,5.65-5.99,5.65-10.33"/>
    <path id="path44" class="cls-3" d="M319.87,275.82c0,9.66-7.83,17.49-17.49,17.49s-17.49-7.83-17.49-17.49,7.83-17.49,17.49-17.49,17.49,7.83,17.49,17.49"/>
    <path id="path48" class="cls-2" d="M351.24,159.33c.04,2.94-4.58,2.94-4.54,0-.04-2.94,4.58-2.94,4.54,0M294.54,181.5c10.1-.24,19.74-.7,32.24-.88,19.23-.29,35.82-.38,44.46-8.27-3.01.22-8-.02-12.15-.49,1.56-.02,3.28-.04,4.77-.06,8.73-.1,16.27-.18,25.98-1.79l-.33-1.97c-3.95.65-7.55,1.05-11.01,1.3,3.73-.77,7.31-1.87,10.69-3.54l-.88-1.79c-8.22,4.04-17.87,4.66-28.09,5.31-.37.02-.75.05-1.12.07,4.13-.75,8.96-1.67,13.2-2.67-4.16-10.65-29.24-20.56-51.37-9.96,0,0-10.2.32-12.87.4-16.95.49-36.62,3.33-49.49,14.69-20.63,18.21-19.41,50.85-.18,67.61,15.42,13.44,43.77,13.63,55.22,22.94,9.61,7.81,8.66,27.51-8.58,30.51-17.3,3-29.3,6.93-38.4,20.06-15.4,22.23,1.33,47.89,32.6,52.86,17.51,2.79,20.61,21.87,3.97,26.95-22.22,6.78-35.35,10.06-35.07,27.77h7.63c3.18-18.93,33.92-6.43,48.66-26.34,14.46-19.53.19-42.15-23.3-46.36-22.2-3.98-24.96-23.34-9.21-30.18,8.48-3.68,15.98-1.69,26.64-6.48,32.61-14.65,29.81-49.81,10.4-65.43-23.13-18.62-37.73-9.86-52.06-22.48-14.4-12.68-8.85-41.17,17.66-41.79"/>
    <path id="path52" class="cls-3" d="M323.71,82.33l-1.99-.21,3.49-33.24,1.99.21-3.49,33.24ZM281.01,82.35l-3.49-33.24,1.99-.21,3.49,33.24-1.99.21ZM343.83,85.62l-1.96-.42,6.95-32.69,1.96.41-6.95,32.69ZM260.9,85.64l-6.95-32.69,1.96-.42,6.95,32.69-1.96.42ZM363.49,91l-1.9-.62,10.33-31.79,1.9.62-10.33,31.79ZM241.24,91.02l-10.33-31.79,1.9-.62,10.33,31.79-1.9.62ZM382.49,98.4l-1.83-.81,13.59-30.53,1.83.81-13.59,30.53ZM222.25,98.42l-13.59-30.53,1.83-.81,13.6,30.53-1.83.81ZM187.09,118.95l-19.65-27.04,1.62-1.18,19.65,27.04-1.62,1.17ZM417.64,118.95l-1.62-1.17,19.65-27.04,1.62,1.18-19.65,27.04ZM171.31,131.86l-22.36-24.84,1.49-1.34,22.36,24.84-1.49,1.34ZM433.42,131.86l-1.49-1.34,22.36-24.84,1.49,1.34-22.36,24.84ZM156.97,146.35l-24.84-22.36,1.34-1.49,24.84,22.36-1.34,1.49ZM447.75,146.35l-1.34-1.49,24.84-22.36,1.34,1.49-24.84,22.36ZM144.23,162.26l-27.04-19.64,1.18-1.62,27.04,19.64-1.18,1.62ZM460.5,162.26l-1.17-1.62,27.04-19.64,1.17,1.62-27.04,19.64ZM124.05,197.61l-30.53-13.59.81-1.83,30.54,13.59-.81,1.83ZM480.68,197.62l-.81-1.83,30.53-13.6.81,1.83-30.53,13.59ZM116.85,216.67l-31.79-10.33.62-1.9,31.79,10.33-.62,1.9ZM487.88,216.69l-.62-1.9,31.79-10.33.62,1.9-31.79,10.33ZM111.67,236.39l-32.69-6.95.41-1.96,32.69,6.95-.41,1.96ZM493.06,236.4l-.42-1.96,32.69-6.95.42,1.96-32.69,6.95ZM108.59,256.54l-33.24-3.49.21-1.99,33.24,3.49-.21,1.99ZM496.14,256.55l-.21-1.99,33.24-3.49.21,1.99-33.24,3.49ZM529.17,300.74l-33.24-3.49.21-1.99,33.24,3.49-.21,1.99ZM75.55,300.76l-.21-1.99,33.24-3.49.21,1.99-33.24,3.49ZM525.33,324.31l-32.69-6.95.42-1.95,32.69,6.95-.42,1.95ZM79.39,324.33l-.41-1.96,32.69-6.95.41,1.96-32.69,6.95ZM519.05,347.35l-31.79-10.33.62-1.9,31.79,10.33-.62,1.9ZM85.68,347.37l-.62-1.9,31.79-10.33.62,1.9-31.79,10.33ZM510.4,369.61l-30.53-13.59.81-1.83,30.53,13.59-.81,1.83ZM94.33,369.63l-.81-1.83,30.53-13.6.81,1.83-30.53,13.6ZM118.36,410.83l-1.17-1.62,27.04-19.65,1.18,1.62-27.04,19.65ZM486.37,410.83l-27.04-19.65,1.17-1.62,27.04,19.65-1.17,1.62ZM133.47,429.32l-1.34-1.49,24.84-22.36,1.34,1.49-24.84,22.36ZM471.25,429.32l-24.84-22.36,1.34-1.49,24.84,22.36-1.34,1.49ZM150.44,446.14l-1.49-1.34,22.36-24.84,1.49,1.34-22.36,24.84ZM454.29,446.14l-22.37-24.84,1.49-1.34,22.37,24.84-1.49,1.34ZM169.06,461.08l-1.62-1.17,19.65-27.04,1.62,1.17-19.65,27.04ZM435.66,461.08l-19.65-27.04,1.62-1.17,19.65,27.04-1.62,1.17ZM210.47,484.73l-1.83-.81,13.59-30.53,1.83.81-13.6,30.53ZM394.26,484.75l-13.59-30.53,1.83-.81,13.59,30.53-1.83.81ZM232.81,493.19l-1.9-.62,10.33-31.79,1.9.62-10.33,31.78ZM371.92,493.21l-10.33-31.79,1.9-.62,10.33,31.79-1.9.62ZM255.9,499.28l-1.96-.42,6.95-32.69,1.96.42-6.95,32.69ZM348.82,499.29l-6.95-32.69,1.96-.42,6.95,32.69-1.96.42ZM279.51,502.91l-1.99-.21,3.49-33.24,1.99.21-3.49,33.24ZM325.22,502.92l-3.49-33.24,1.99-.21,3.49,33.24-1.99.21Z"/>
    <path id="path54" class="cls-3" d="M306.36,81.16h-8v-33.42h8v33.42ZM403.2,109.24l-6.93-4,16.71-28.94,6.93,4-16.71,28.94ZM201.53,109.25l-16.71-28.95,6.93-4,16.71,28.95-6.93,4ZM131.72,181.98l-28.95-16.71,4-6.93,28.95,16.71-4,6.93ZM473.01,182l-4-6.93,28.95-16.71,4,6.93-28.95,16.71ZM107.62,279.9h-33.42v-8h33.42v8ZM530.53,279.9h-33.42v-8h33.42v8ZM497.96,393.43l-28.95-16.71,4-6.93,28.95,16.71-4,6.93ZM106.77,393.45l-4-6.93,28.95-16.71,4,6.93-28.95,16.71ZM191.75,475.49l-6.93-4,16.71-28.95,6.93,4-16.71,28.95ZM412.98,475.5l-16.71-28.95,6.93-4,16.71,28.95-6.93,4ZM306.36,504.07h-8v-33.42h8v33.42Z"/>
    <path id="path56" class="cls-3" d="M309.03,269.29h-13.33v-55.29h13.33v55.29ZM309.03,384.06h-13.33v-53.7h13.33v53.7Z"/>
  </g>
</svg>