<?xml version="1.0" encoding="UTF-8" standalone="no"?>
<!DOCTYPE svg PUBLIC "-//W3C//DTD SVG 1.1//EN" "http://www.w3.org/Graphics/SVG/1.1/DTD/svg11.dtd">
<svg width="100%" height="100%" viewBox="0 0 600 500" version="1.1" xmlns="http://www.w3.org/2000/svg" xmlns:xlink="http://www.w3.org/1999/xlink" xml:space="preserve" xmlns:serif="http://www.serif.com/" style="fill-rule:evenodd;clip-rule:evenodd;stroke-linecap:round;">
    <g>
        <path d="M80,200L550,200" style="fill:none;fill-rule:nonzero;stroke:rgb(51,51,51);stroke-width:2px;"/>
        <path d="M80,200L80,40" style="fill:none;fill-rule:nonzero;stroke:rgb(51,51,51);stroke-width:2px;"/>
        <path d="M220,40L220,200" style="fill:none;fill-rule:nonzero;stroke:rgb(204,204,204);stroke-width:1px;stroke-linecap:butt;stroke-dasharray:4,4;"/>
        <path d="M400,40L400,200" style="fill:none;fill-rule:nonzero;stroke:rgb(204,204,204);stroke-width:1px;stroke-linecap:butt;stroke-dasharray:4,4;"/>
        <g transform="matrix(1,0,0,1,220,220)">
            <text x="-10.011px" y="0px" style="font-family:'Helvetica';font-size:12px;fill:rgb(102,102,102);">500</text>
        </g>
        <g transform="matrix(1,0,0,1,400,220)">
            <text x="-13.348px" y="0px" style="font-family:'Helvetica';font-size:12px;fill:rgb(102,102,102);">1000</text>
        </g>
        <g transform="matrix(1,0,0,1,550,220)">
            <text x="-13.348px" y="0px" style="font-family:'Helvetica';font-size:12px;fill:rgb(102,102,102);">1500</text>
        </g>
        <g transform="matrix(-3.82857e-16,-1,1,-3.82857e-16,30,120)">
            <g transform="matrix(14,0,0,14,22.9414,0)">
            </g>
            <text x="-22.941px" y="0px" style="font-family:'Helvetica-Bold', 'Helvetica';font-weight:700;font-size:14px;fill:rgb(51,51,51);">Ligand</text>
        </g>
        <path d="M80,198L220,198L220,60L400,60L400,198L550,198" style="fill:none;fill-rule:nonzero;stroke:rgb(44,76,59);stroke-width:4px;stroke-linecap:butt;stroke-linejoin:round;"/>
    </g>
    <g transform="matrix(1,0,0,1,0,250)">
        <path d="M80,200L550,200" style="fill:none;fill-rule:nonzero;stroke:rgb(51,51,51);stroke-width:2px;"/>
        <path d="M80,200L80,40" style="fill:none;fill-rule:nonzero;stroke:rgb(51,51,51);stroke-width:2px;"/>
        <path d="M220,40L220,200" style="fill:none;fill-rule:nonzero;stroke:rgb(204,204,204);stroke-width:1px;stroke-linecap:butt;stroke-dasharray:4,4;"/>
        <path d="M400,40L400,200" style="fill:none;fill-rule:nonzero;stroke:rgb(204,204,204);stroke-width:1px;stroke-linecap:butt;stroke-dasharray:4,4;"/>
        <path d="M80,140L550,140" style="fill:none;fill-rule:nonzero;stroke:rgb(204,204,204);stroke-width:1px;stroke-linecap:butt;stroke-dasharray:4,4;"/>
        <g transform="matrix(1,0,0,1,220,220)">
            <text x="-10.011px" y="0px" style="font-family:'Helvetica';font-size:12px;fill:rgb(102,102,102);">500</text>
        </g>
        <g transform="matrix(1,0,0,1,400,220)">
            <text x="-13.348px" y="0px" style="font-family:'Helvetica';font-size:12px;fill:rgb(102,102,102);">1000</text>
        </g>
        <g transform="matrix(1,0,0,1,550,220)">
            <text x="-13.348px" y="0px" style="font-family:'Helvetica';font-size:12px;fill:rgb(102,102,102);">1500</text>
        </g>
        <g transform="matrix(1,0,0,1,315,240)">
            <text x="-34.501px" y="0px" style="font-family:'Helvetica-Bold', 'Helvetica';font-weight:700;font-size:14px;fill:rgb(51,51,51);">T<tspan x="-26.195px -22.306px " y="0px 0px ">im</tspan>e (sec)</text>
        </g>
        <g transform="matrix(-3.82857e-16,-1,1,-3.82857e-16,30,120)">
            <text x="-25.286px" y="0px" style="font-family:'Helvetica-Bold', 'Helvetica';font-weight:700;font-size:14px;fill:rgb(51,51,51);">Activity</text>
        </g>
        <path d="M80,140L220,140L220,190C240,190 270,140 360,140L400,140L400,50C420,50 440,140 520,140L550,140" style="fill:none;fill-rule:nonzero;stroke:rgb(217,83,79);stroke-width:4px;stroke-linecap:butt;stroke-linejoin:round;"/>
    </g>
</svg>
